<?xml version="1.0" encoding="utf-8" standalone="no"?>
<!DOCTYPE svg PUBLIC "-//W3C//DTD SVG 1.1//EN"
  "http://www.w3.org/Graphics/SVG/1.1/DTD/svg11.dtd">
<svg xmlns:xlink="http://www.w3.org/1999/xlink" width="221.76pt" height="221.76pt" viewBox="0 0 221.76 221.76" xmlns="http://www.w3.org/2000/svg" version="1.1">
 <metadata>
  <rdf:RDF xmlns:dc="http://purl.org/dc/elements/1.1/" xmlns:cc="http://creativecommons.org/ns#" xmlns:rdf="http://www.w3.org/1999/02/22-rdf-syntax-ns#">
   <cc:Work>
    <dc:type rdf:resource="http://purl.org/dc/dcmitype/StillImage"/>
    <dc:date>2026-06-12T05:45:42.957585</dc:date>
    <dc:format>image/svg+xml</dc:format>
    <dc:creator>
     <cc:Agent>
      <dc:title>Matplotlib v3.10.9, https://matplotlib.org/</dc:title>
     </cc:Agent>
    </dc:creator>
   </cc:Work>
  </rdf:RDF>
 </metadata>
 <defs>
  <style type="text/css">*{stroke-linejoin: round; stroke-linecap: butt}</style>
 </defs>
 <g id="figure_1">
  <g id="patch_1">
   <path d="M 0 221.76 
L 221.76 221.76 
L 221.76 0 
L 0 0 
L 0 221.76 
z
" style="fill: none"/>
  </g>
  <g id="axes_1">
   <g id="patch_2">
    <path d="M 53.2224 212.8896 
L 168.5376 212.8896 
Q 212.8896 212.8896 212.8896 168.5376 
L 212.8896 53.2224 
Q 212.8896 8.8704 168.5376 8.8704 
L 53.2224 8.8704 
Q 8.8704 8.8704 8.8704 53.2224 
L 8.8704 168.5376 
Q 8.8704 212.8896 53.2224 212.8896 
z
" clip-path="url(#pd173ac4a0c)" style="fill: #0a0a0a"/>
   </g>
   <g id="patch_3">
    <path d="M 150.209136 59.642352 
Q 148.789872 63.323568 146.372688 70.35336 
Q 143.955504 77.383152 141.826608 88.604208 
L 138.98808 88.604208 
Q 139.4316 86.608368 139.631184 84.479472 
Q 139.852944 82.350576 139.852944 80.643024 
Q 139.852944 75.1212 137.502288 70.929936 
Q 135.173808 66.738672 130.694256 64.410192 
Q 126.214704 62.059536 119.561904 62.059536 
Q 112.465584 62.059536 107.409456 65.674224 
Q 102.375504 69.288912 102.375504 77.516208 
Q 102.375504 82.483632 104.792688 87.09624 
Q 107.209872 91.708848 110.957616 96.121872 
Q 114.727536 100.51272 118.985328 104.992272 
Q 123.24312 109.449648 127.079568 114.062256 
Q 130.916016 118.674864 133.311024 123.79752 
Q 135.728208 128.898 135.728208 134.730288 
Q 135.728208 142.381008 131.958288 147.791952 
Q 128.210544 153.18072 122.2452 156.595824 
Q 116.279856 159.988752 109.471824 161.541072 
Q 102.663792 163.115568 96.565392 163.115568 
Q 89.890416 163.115568 85.566096 162.250704 
Q 81.241776 161.408016 78.11496 159.922224 
Q 74.988144 158.414256 72.01656 156.573648 
Q 70.442064 155.575728 69.155856 155.021328 
Q 67.891824 154.444752 67.049136 154.444752 
Q 65.186352 154.444752 64.055376 156.152304 
Q 62.9244 157.859856 61.083792 162.117648 
L 58.245264 162.117648 
Q 59.509296 158.990832 60.92856 154.888272 
Q 62.347824 150.763536 64.055376 144.31032 
Q 65.762928 137.834928 67.891824 128.055312 
L 70.730352 128.055312 
Q 70.02072 130.472496 69.665904 133.532784 
Q 69.311088 136.570896 69.444144 139.254192 
Q 69.887664 149.344272 75.764304 154.666512 
Q 81.66312 159.988752 92.595888 159.988752 
Q 102.242448 159.988752 106.566768 156.019248 
Q 110.891088 152.027568 110.891088 145.08648 
Q 110.891088 139.121136 108.695664 134.153712 
Q 106.50024 129.186288 103.018608 124.79544 
Q 99.536976 120.382416 95.700528 116.213328 
Q 91.886256 112.022064 88.404624 107.631216 
Q 84.922992 103.218192 82.794096 98.117712 
Q 80.6652 92.995056 80.6652 87.029712 
Q 80.6652 79.800336 83.792016 74.478096 
Q 86.918832 69.155856 92.152368 65.607696 
Q 97.40808 62.059536 103.50648 60.351984 
Q 109.627056 58.644432 115.570224 58.644432 
Q 123.952752 58.644432 129.208464 60.7068 
Q 134.464176 62.769168 138.012336 64.898064 
Q 139.276368 65.740752 140.629104 66.450384 
Q 141.98184 67.160016 142.691472 67.160016 
Q 144.665136 67.160016 147.370608 59.642352 
L 150.209136 59.642352 
z
" clip-path="url(#pd173ac4a0c)" style="fill: #c9a96e"/>
   </g>
   <g id="patch_4">
    <path d="M 170.167536 163.559088 
C 172.637616 163.559088 175.006861 162.577715 176.753472 160.831104 
C 178.500083 159.084493 179.481456 156.715248 179.481456 154.245168 
C 179.481456 151.775088 178.500083 149.405843 176.753472 147.659232 
C 175.006861 145.912621 172.637616 144.931248 170.167536 144.931248 
C 167.697456 144.931248 165.328211 145.912621 163.5816 147.659232 
C 161.834989 149.405843 160.853616 151.775088 160.853616 154.245168 
C 160.853616 156.715248 161.834989 159.084493 163.5816 160.831104 
C 165.328211 162.577715 167.697456 163.559088 170.167536 163.559088 
z
" clip-path="url(#pd173ac4a0c)" style="fill: #c9a96e"/>
   </g>
  </g>
 </g>
 <defs>
  <clipPath id="pd173ac4a0c">
   <rect x="0" y="-0" width="221.76" height="221.76"/>
  </clipPath>
 </defs>
</svg>
