<?xml version="1.0" encoding="utf-8" standalone="no"?>
<!DOCTYPE svg PUBLIC "-//W3C//DTD SVG 1.1//EN"
  "http://www.w3.org/Graphics/SVG/1.1/DTD/svg11.dtd">
<svg xmlns:xlink="http://www.w3.org/1999/xlink" width="624.96391pt" height="228.96pt" viewBox="0 0 624.96391 228.96" xmlns="http://www.w3.org/2000/svg" version="1.1">
 <metadata>
  <rdf:RDF xmlns:dc="http://purl.org/dc/elements/1.1/" xmlns:cc="http://creativecommons.org/ns#" xmlns:rdf="http://www.w3.org/1999/02/22-rdf-syntax-ns#">
   <cc:Work>
    <dc:type rdf:resource="http://purl.org/dc/dcmitype/StillImage"/>
    <dc:date>2026-06-12T05:45:42.911768</dc:date>
    <dc:format>image/svg+xml</dc:format>
    <dc:creator>
     <cc:Agent>
      <dc:title>Matplotlib v3.10.9, https://matplotlib.org/</dc:title>
     </cc:Agent>
    </dc:creator>
   </cc:Work>
  </rdf:RDF>
 </metadata>
 <defs>
  <style type="text/css">*{stroke-linejoin: round; stroke-linecap: butt}</style>
 </defs>
 <g id="figure_1">
  <g id="patch_1">
   <path d="M 0 228.96 
L 624.96391 228.96 
L 624.96391 0 
L 0 0 
z
" style="fill: #f5f2ec"/>
  </g>
  <g id="axes_1">
   <g id="patch_2">
    <path d="M 126.827858 23.983367 
Q 125.223263 28.145284 122.490438 36.093042 
Q 119.757612 44.0408 117.35072 56.727127 
L 114.141531 56.727127 
Q 114.642967 54.470666 114.868613 52.063774 
Q 115.119331 49.656882 115.119331 47.726354 
Q 115.119331 41.483478 112.461721 36.744909 
Q 109.829183 32.00634 104.764681 29.373802 
Q 99.700179 26.716192 92.178641 26.716192 
Q 84.155668 26.716192 78.439299 30.802894 
Q 72.748002 34.889596 72.748002 44.191231 
Q 72.748002 49.807313 75.480828 55.022245 
Q 78.213653 60.237178 82.450786 65.226465 
Q 86.71299 70.190679 91.526774 75.255181 
Q 96.340559 80.294612 100.677979 85.509544 
Q 105.015399 90.724477 107.723152 96.516061 
Q 110.455977 102.282573 110.455977 108.876454 
Q 110.455977 117.526223 106.193773 123.64374 
Q 101.95664 129.736185 95.212328 133.597241 
Q 88.468016 137.433226 80.770976 139.188251 
Q 73.073936 140.968348 66.179193 140.968348 
Q 58.632583 140.968348 53.743584 139.990548 
Q 48.854585 139.03782 45.319462 137.35801 
Q 41.784339 135.653128 38.424719 133.57217 
Q 36.644622 132.443939 35.190458 131.817144 
Q 33.761366 131.165278 32.808638 131.165278 
Q 30.702607 131.165278 29.423946 133.095806 
Q 28.145284 135.026334 26.064326 139.840118 
L 22.855136 139.840118 
Q 24.284228 136.304995 25.888823 131.666713 
Q 27.493418 127.00336 29.423946 119.707469 
Q 31.354474 112.386505 33.761366 101.329845 
L 36.970555 101.329845 
Q 36.168258 104.06267 35.767109 107.522578 
Q 35.36596 110.957413 35.516391 113.9911 
Q 36.017827 125.398765 42.661852 131.415995 
Q 49.330949 137.433226 61.691342 137.433226 
Q 72.597572 137.433226 77.486571 132.945375 
Q 82.37557 128.432452 82.37557 120.584981 
Q 82.37557 113.840669 79.893463 108.224588 
Q 77.411356 102.608507 73.475084 97.644292 
Q 69.538813 92.655005 65.201393 87.941508 
Q 60.889045 83.20294 56.952773 78.238725 
Q 53.016502 73.249438 50.60961 67.482926 
Q 48.202718 61.691342 48.202718 54.94703 
Q 48.202718 46.773626 51.737841 40.756396 
Q 55.272963 34.739166 61.189906 30.727679 
Q 67.131921 26.716192 74.026664 24.785664 
Q 80.946478 22.855136 87.665718 22.855136 
Q 97.142856 22.855136 103.084871 25.186813 
Q 109.026885 27.51849 113.038372 29.925382 
Q 114.467464 30.87811 115.996843 31.680407 
Q 117.526223 32.482704 118.32852 32.482704 
Q 120.55991 32.482704 123.618668 23.983367 
L 126.827858 23.983367 
z
M 199.505963 25.738392 
Q 192.786723 25.738392 186.368344 30.151028 
Q 179.949965 34.563663 174.409099 42.36099 
Q 168.868233 50.133246 164.681244 60.161963 
Q 160.519327 70.190679 158.18765 81.598345 
Q 155.881045 92.980938 155.881045 104.539034 
Q 155.881045 120.259048 160.770045 129.159534 
Q 165.659044 138.06002 173.205653 138.06002 
Q 179.949965 138.06002 186.368344 133.647385 
Q 192.786723 129.23475 198.302517 121.462494 
Q 203.843383 113.690239 208.005301 103.661522 
Q 212.19229 93.632805 214.523967 82.250211 
Q 216.855643 70.842546 216.855643 59.28445 
Q 216.855643 43.564436 211.941572 34.66395 
Q 207.052573 25.738392 199.505963 25.738392 
z
M 128.277002 102.458076 
Q 128.277002 91.852708 131.636622 80.620545 
Q 135.021314 69.388382 141.26419 59.134019 
Q 147.532138 48.854585 156.432625 40.68118 
Q 165.333111 32.482704 176.565274 27.66892 
Q 187.797436 22.855136 200.960127 22.855136 
Q 221.343494 22.855136 232.976806 32.883853 
Q 244.610117 42.91257 244.610117 61.540911 
Q 244.610117 72.121207 241.225425 83.278155 
Q 237.865805 94.435102 231.522642 104.714537 
Q 225.179478 114.9689 216.203777 123.167376 
Q 207.228075 131.34078 196.071128 136.154564 
Q 184.91418 140.968348 171.75149 140.968348 
Q 151.368123 140.968348 139.810027 130.939631 
Q 128.277002 120.910915 128.277002 102.458076 
z
" clip-path="url(#pf0a5f82058)" style="fill: #a07c42"/>
   </g>
   <g id="patch_3">
    <path d="M 310.248068 25.111598 
L 310.248068 28.320787 
Q 304.782418 28.471218 301.974377 29.524233 
Q 299.166336 30.552176 298.188536 33.360217 
Q 297.235808 36.168258 297.235808 42.110272 
L 297.235808 123.618668 
Q 297.235808 128.607955 297.96289 131.014847 
Q 298.689972 133.421739 300.846146 134.224036 
Q 303.027392 135.026334 307.33974 135.026334 
L 315.212283 135.026334 
Q 320.677934 135.026334 325.491718 132.469011 
Q 330.305502 129.886616 334.141486 125.148047 
Q 338.002542 120.409479 340.559865 113.840669 
Q 343.142259 107.27186 344.420921 99.248886 
L 348.106474 99.248886 
Q 347.63011 104.689465 347.63011 113.364305 
Q 347.63011 117.049859 347.780541 124.120104 
Q 347.956043 131.165278 348.758341 138.711887 
Q 340.559865 138.385954 330.28043 138.310738 
Q 320.026067 138.235523 312.003094 138.235523 
Q 307.991607 138.235523 301.723659 138.235523 
Q 295.480783 138.235523 288.260107 138.310738 
Q 281.039431 138.385954 273.643252 138.486241 
Q 266.272145 138.561456 259.703336 138.711887 
L 259.703336 135.502698 
Q 264.817981 135.176764 267.375304 134.224036 
Q 269.957699 133.246236 270.835211 130.36298 
Q 271.737796 127.479724 271.737796 121.713212 
L 271.737796 42.110272 
Q 271.737796 36.168258 270.835211 33.360217 
Q 269.957699 30.552176 267.300089 29.524233 
Q 264.667551 28.471218 259.703336 28.320787 
L 259.703336 25.111598 
Q 263.714822 25.262028 270.53435 25.437531 
Q 277.353877 25.587962 285.050917 25.587962 
Q 292.096091 25.587962 298.915618 25.437531 
Q 305.735146 25.262028 310.248068 25.111598 
z
M 459.93668 25.111598 
L 459.93668 28.320787 
Q 454.822035 28.947582 452.164425 30.953325 
Q 449.506815 32.959068 448.704518 37.296488 
Q 447.90222 41.633908 447.90222 49.506451 
L 447.90222 92.02821 
Q 447.90222 102.458076 446.448056 111.132916 
Q 445.018964 119.782684 441.333411 126.02556 
Q 437.171493 132.945375 429.14852 136.956862 
Q 421.125546 140.968348 408.765153 140.968348 
Q 401.368974 140.968348 393.671934 139.263466 
Q 385.974894 137.583656 379.882449 132.945375 
Q 374.742731 128.607955 372.009906 123.167376 
Q 369.277081 117.701725 368.324353 110.230331 
Q 367.371625 102.758937 367.371625 92.504574 
L 367.371625 42.110272 
Q 367.371625 36.168258 366.46904 33.360217 
Q 365.591527 30.552176 363.009133 29.524233 
Q 360.45181 28.471218 355.337164 28.320787 
L 355.337164 25.111598 
Q 359.348651 25.262028 366.168178 25.437531 
Q 372.987706 25.587962 380.358813 25.587962 
Q 387.72992 25.587962 394.549447 25.437531 
Q 401.368974 25.262028 405.881897 25.111598 
L 405.881897 28.320787 
Q 400.416246 28.471218 397.608206 29.524233 
Q 394.800165 30.552176 393.822365 33.360217 
Q 392.869637 36.168258 392.869637 42.110272 
L 392.869637 102.608507 
Q 392.869637 110.63148 393.89758 116.824213 
Q 394.950596 122.991873 397.432703 127.078575 
Q 399.939882 131.165278 404.25223 133.271308 
Q 408.589651 135.352267 415.008029 135.352267 
Q 426.240192 135.352267 432.583355 130.062119 
Q 438.926519 124.746899 441.559057 115.370049 
Q 444.216667 105.968127 444.216667 93.783236 
L 444.216667 51.411907 
Q 444.216667 42.586637 443.088436 37.87314 
Q 441.985277 33.134571 438.675801 31.053612 
Q 435.391396 28.947582 428.647084 28.320787 
L 428.647084 25.111598 
Q 431.705843 25.262028 436.670058 25.437531 
Q 441.659344 25.587962 445.996764 25.587962 
Q 449.832748 25.587962 453.593517 25.437531 
Q 457.379358 25.262028 459.93668 25.111598 
z
M 510.82238 24.936095 
L 510.82238 28.320787 
Q 503.601704 28.320787 501.59596 29.699735 
Q 499.590217 31.053612 501.821606 34.413232 
L 565.378599 127.329293 
Q 568.587788 131.817144 570.493245 133.421739 
Q 572.423773 135.026334 575.632962 135.352267 
L 575.632962 138.711887 
Q 572.423773 138.561456 566.331327 138.310738 
Q 560.238882 138.06002 553.645 138.06002 
Q 546.424324 138.06002 538.95293 138.310738 
Q 531.506608 138.561456 527.821055 138.711887 
L 527.821055 135.352267 
Q 535.192161 135.352267 537.348336 134.299252 
Q 539.529581 133.246236 537.298192 129.886616 
L 473.590769 36.34376 
Q 470.53201 31.680407 468.601482 30.075812 
Q 466.696026 28.471218 463.311334 28.320787 
L 463.311334 24.936095 
Q 466.696026 25.111598 473.18962 25.362315 
Q 479.683214 25.587962 486.252024 25.587962 
Q 493.4727 25.587962 500.141796 25.362315 
Q 506.810893 25.111598 510.82238 24.936095 
z
M 512.251472 81.598345 
Q 512.251472 81.598345 512.577405 82.65136 
Q 512.903338 83.679304 513.2042 84.732319 
Q 513.530133 85.760262 513.530133 85.760262 
L 497.484186 107.748224 
Q 491.065808 116.397992 490.26351 122.415222 
Q 489.461213 128.432452 493.071551 131.741929 
Q 496.681889 135.026334 503.752134 135.502698 
L 503.752134 138.711887 
Q 501.495673 138.561456 498.035766 138.486241 
Q 494.60093 138.385954 490.81509 138.310738 
Q 487.054321 138.235523 483.769916 138.235523 
Q 480.485511 138.235523 478.404553 138.235523 
Q 473.916702 138.235523 470.055646 138.310738 
Q 466.19459 138.385954 463.637267 138.711887 
L 463.637267 135.502698 
Q 469.253349 133.57217 475.019861 128.68317 
Q 480.811445 123.794171 486.90389 115.921628 
L 512.251472 81.598345 
z
M 568.412286 25.111598 
L 568.412286 28.320787 
Q 563.122138 29.749879 557.907205 34.413232 
Q 552.692272 39.076586 548.204421 45.169031 
L 522.204973 79.818248 
Q 522.204973 79.818248 521.628322 77.737289 
Q 521.076743 75.65633 521.076743 75.65633 
L 537.599053 53.342435 
Q 543.716571 45.645395 544.920017 40.204816 
Q 546.123463 34.739166 543.064704 31.705479 
Q 540.005946 28.64672 533.437136 28.320787 
L 533.437136 25.111598 
Q 536.495895 25.262028 540.181448 25.362315 
Q 543.867001 25.437531 547.47734 25.512746 
Q 551.087678 25.587962 553.645 25.587962 
Q 558.308354 25.587962 562.144338 25.437531 
Q 566.005394 25.262028 568.412286 25.111598 
z
" clip-path="url(#pf0a5f82058)" style="fill: #141414"/>
   </g>
   <g id="patch_4">
    <path d="M 593.283503 138.270623 
C 595.623993 138.270623 597.868937 137.340737 599.523912 135.685761 
C 601.178888 134.030786 602.108774 131.785842 602.108774 129.445353 
C 602.108774 127.104863 601.178888 124.85992 599.523912 123.204944 
C 597.868937 121.549968 595.623993 120.620082 593.283503 120.620082 
C 590.943014 120.620082 588.69807 121.549968 587.043095 123.204944 
C 585.388119 124.85992 584.458233 127.104863 584.458233 129.445353 
C 584.458233 131.785842 585.388119 134.030786 587.043095 135.685761 
C 588.69807 137.340737 590.943014 138.270623 593.283503 138.270623 
z
" clip-path="url(#pf0a5f82058)" style="fill: #a07c42"/>
   </g>
   <g id="patch_5">
    <path d="M 209.754424 201.201573 
C 209.821241 200.415197 209.852079 199.62368 209.852079 198.837303 
L 209.852079 198.17942 
L 222.978917 198.17942 
L 222.978917 201.201573 
L 209.754424 201.201573 
z
M 222.978917 194.36061 
L 222.978917 197.223432 
L 209.852079 197.223432 
L 209.852079 194.36061 
L 222.978917 194.36061 
z
M 222.649975 193.373784 
L 210.278676 193.373784 
L 207.713957 192.258465 
L 207.713957 198.868142 
C 207.713957 202.388848 207.385015 205.80676 204.290905 208.505112 
L 204.655825 208.90087 
C 207.945244 207.158506 209.163357 204.691441 209.589954 202.188399 
L 222.978917 202.188399 
L 222.978917 205.513796 
C 222.978917 206.038047 222.814446 206.238496 222.218239 206.238496 
C 221.462701 206.238496 217.941994 205.971231 217.941994 205.971231 
L 217.941994 206.464644 
C 219.458211 206.665093 220.347382 206.958057 220.871633 207.286999 
C 221.334208 207.585102 221.529517 208.109354 221.596333 208.767237 
C 224.721281 208.438295 225.11704 207.420631 225.11704 205.775922 
L 225.11704 194.756368 
C 225.805762 194.658713 226.330013 194.36061 226.494484 194.129322 
L 223.765294 192.058016 
L 222.649975 193.373784 
z
M 226.725771 189.955872 
L 217.320088 189.955872 
L 217.320088 187.026233 
L 226.694933 187.026233 
C 227.152368 187.026233 227.450471 186.861762 227.548126 186.501982 
C 226.494484 185.545994 224.849774 184.261065 224.849774 184.261065 
L 223.369536 186.070246 
L 217.320088 186.070246 
L 217.320088 183.274239 
L 228.668584 183.274239 
C 229.126019 183.274239 229.424123 183.109768 229.521777 182.749988 
C 228.468135 181.763162 226.694933 180.416556 226.694933 180.416556 
L 225.178716 182.323392 
L 217.320088 182.323392 
L 217.320088 179.789511 
C 218.142443 179.655878 218.471385 179.326936 218.538201 178.869502 
L 215.181966 178.504582 
L 215.181966 182.323392 
L 203.46855 182.323392 
L 203.735815 183.274239 
L 215.181966 183.274239 
L 215.181966 186.070246 
L 205.082421 186.070246 
L 205.344547 187.026233 
L 215.181966 187.026233 
L 215.181966 189.955872 
L 201.628531 189.955872 
L 201.926635 190.90672 
L 230.246478 190.90672 
C 230.709052 190.90672 231.037994 190.742249 231.099671 190.382468 
C 230.01519 189.359665 228.272826 188.043897 228.272826 188.043897 
L 226.725771 189.955872 
z
" clip-path="url(#pf0a5f82058)" style="fill: #6f685c"/>
   </g>
   <g id="patch_6">
    <path d="M 278.174342 197.881316 
C 276.298345 198.508362 274.422348 199.130267 272.679984 199.721335 
L 272.679984 191.43611 
L 277.254332 191.43611 
C 277.711767 191.43611 278.009871 191.271639 278.107526 190.942698 
C 277.1207 189.955872 275.573645 188.604126 275.573645 188.604126 
L 274.191061 190.510961 
L 272.679984 190.510961 
L 272.679984 182.554679 
L 277.644951 182.554679 
C 278.107526 182.554679 278.436467 182.390208 278.503284 182.025288 
C 277.418803 181.007624 275.6713 179.594202 275.6713 179.594202 
L 274.129384 181.598691 
L 265.638571 181.598691 
L 265.905837 182.554679 
L 270.5727 182.554679 
L 270.5727 190.510961 
L 265.936675 190.510961 
L 266.1988 191.43611 
L 270.5727 191.43611 
L 270.5727 200.379219 
C 268.105636 201.170735 266.101146 201.797781 264.949849 202.059906 
L 266.296455 204.758258 
C 266.625397 204.624625 266.892662 204.326522 266.954339 203.935903 
C 271.924446 201.664148 275.6713 199.721335 278.338813 198.374729 
L 278.174342 197.881316 
z
M 282.02399 195.907665 
C 282.152483 194.658713 282.188461 193.373784 282.188461 192.093994 
L 282.188461 189.133517 
L 291.398835 189.133517 
L 291.398835 195.907665 
L 282.02399 195.907665 
z
M 291.398835 181.598691 
L 291.398835 188.17753 
L 282.188461 188.17753 
L 282.188461 181.598691 
L 291.398835 181.598691 
z
M 292.185211 179.26526 
L 291.069893 180.642704 
L 282.57908 180.642704 
L 280.081177 179.558224 
L 280.081177 192.155671 
C 280.081177 198.89898 278.996697 204.228867 273.106581 208.309803 
L 273.533177 208.736399 
C 279.289661 205.775922 281.29929 201.530515 281.921196 196.827674 
L 291.398835 196.827674 
L 291.398835 205.184854 
C 291.398835 205.745084 291.234364 205.971231 290.473686 205.971231 
C 289.718147 205.971231 285.770844 205.678267 285.770844 205.678267 
L 285.770844 206.202518 
C 287.48237 206.433806 288.438357 206.695931 288.993447 207.060851 
C 289.48686 207.353815 289.718147 207.944883 289.85178 208.571928 
C 293.141199 208.242986 293.536957 207.122528 293.536957 205.416142 
L 293.536957 182.025288 
C 294.194841 181.927633 294.74993 181.665508 294.981218 181.367404 
L 292.185211 179.26526 
z
" clip-path="url(#pf0a5f82058)" style="fill: #6f685c"/>
   </g>
   <g id="patch_7">
    <path d="M 355.475691 179.131627 
C 353.13712 182.390208 349.883678 185.576833 346.661076 187.915404 
L 347.051694 188.408817 
C 350.736872 186.563658 354.519703 183.834468 357.218055 181.172095 
C 357.845101 181.300588 358.174043 181.238911 358.40019 180.909969 
L 355.475691 179.131627 
z
M 347.087672 197.686007 
C 351.034975 195.645539 355.013116 192.618245 357.875939 189.62693 
C 358.564661 189.791401 358.862765 189.724585 359.094052 189.395643 
L 356.164413 187.6173 
C 353.66651 191.168845 350.145804 194.622735 346.661076 197.192594 
L 347.087672 197.686007 
z
M 343.268862 180.873991 
L 343.268862 183.274239 
L 334.094467 183.274239 
L 334.094467 180.873991 
L 343.268862 180.873991 
z
M 334.094467 186.728129 
L 334.094467 184.261065 
L 343.268862 184.261065 
L 343.268862 186.728129 
L 334.094467 186.728129 
z
M 334.094467 187.714955 
L 343.268862 187.714955 
L 343.268862 189.066701 
L 343.566966 189.066701 
C 344.22485 189.066701 345.180837 188.604126 345.211675 188.408817 
L 345.211675 181.26975 
C 345.869559 181.136117 346.429788 180.873991 346.625098 180.611866 
L 344.091217 178.669053 
L 342.93992 179.923144 
L 334.258938 179.923144 
L 332.120815 178.936318 
L 332.120815 189.462459 
L 332.413779 189.462459 
C 333.205296 189.462459 334.094467 189.030723 334.094467 188.835413 
L 334.094467 187.714955 
z
M 347.812372 192.027178 
C 348.269807 192.027178 348.598749 191.862707 348.665565 191.497787 
C 347.67874 190.546939 346.03403 189.297988 346.03403 189.297988 
L 344.620608 191.040352 
L 339.588825 191.040352 
C 340.704143 190.546939 340.935431 188.573288 337.347908 187.848588 
L 337.018966 188.079875 
C 337.615173 188.670942 338.139424 189.791401 338.108586 190.71141 
C 338.273057 190.875881 338.437528 190.973536 338.632837 191.040352 
L 329.48928 191.040352 
L 329.751406 192.027178 
L 347.812372 192.027178 
z
M 333.631892 200.646484 
C 332.876354 202.584157 331.200806 205.282509 329.355647 206.994035 
L 329.720567 207.420631 
C 332.053999 206.135702 334.192121 204.033558 335.343418 202.322032 
C 336.068118 202.455664 336.330244 202.291193 336.494715 201.962252 
L 333.631892 200.646484 
z
M 334.192121 195.018493 
L 343.104391 195.018493 
L 343.104391 198.045787 
L 334.192121 198.045787 
L 334.192121 195.018493 
z
M 343.104391 199.032613 
L 343.104391 200.512851 
L 343.402495 200.512851 
C 344.02954 200.512851 345.016366 200.050277 345.047204 199.885806 
L 345.047204 195.316597 
C 345.607434 195.218942 346.100846 194.951677 346.296156 194.72553 
L 343.895908 192.916349 
L 342.811427 194.031668 
L 334.356592 194.031668 
L 332.249308 193.08082 
L 332.249308 200.646484 
L 332.516573 200.646484 
C 333.30295 200.646484 334.192121 200.214748 334.192121 200.050277 
L 334.192121 199.032613 
L 337.712828 199.032613 
L 337.712828 205.544635 
C 337.712828 205.971231 337.579195 206.104864 337.12176 206.104864 
C 336.592369 206.104864 334.289776 205.940393 334.289776 205.940393 
L 334.289776 206.433806 
C 335.410234 206.567438 336.03214 206.829564 336.361082 207.122528 
C 336.690024 207.487448 336.823657 208.011699 336.854495 208.602766 
C 339.321559 208.309803 339.686479 207.225322 339.686479 205.580613 
L 339.686479 199.032613 
L 343.104391 199.032613 
z
M 340.508834 200.975426 
C 341.824602 202.023928 343.433333 203.935903 343.798253 205.477818 
C 345.900397 206.927219 347.447452 202.455664 340.837776 200.677322 
L 340.508834 200.975426 
z
M 356.919951 196.730019 
C 353.66651 201.664148 349.158978 205.380164 344.194011 208.047677 
L 344.522953 208.638744 
C 350.078988 206.433806 354.982278 203.113548 358.667455 198.672832 
C 359.422994 198.837303 359.715958 198.770487 359.947245 198.405567 
L 356.919951 196.730019 
z
" clip-path="url(#pf0a5f82058)" style="fill: #6f685c"/>
   </g>
   <g id="patch_8">
    <path d="M 399.846871 178.54056 
C 398.40261 184.754478 395.86873 191.168845 393.370827 195.280619 
L 393.828262 195.609561 
C 395.113191 194.196139 396.295326 192.520591 397.415785 190.644594 
L 397.415785 208.669583 
L 397.811543 208.669583 
C 398.59792 208.669583 399.487091 208.145332 399.517929 207.944883 
L 399.517929 188.110713 
C 400.114136 188.043897 400.443078 187.817749 400.540733 187.550484 
L 399.32262 187.093049 
C 400.376262 184.918949 401.327109 182.616355 402.087788 180.282924 
C 402.843326 180.282924 403.203106 179.98482 403.336739 179.594202 
L 399.846871 178.54056 
z
M 405.706149 191.004374 
L 405.706149 186.666453 
L 411.822412 186.666453 
L 411.822412 191.004374 
L 405.706149 191.004374 
z
M 414.320315 182.421046 
C 413.765225 183.474688 413.004547 184.790456 412.346663 185.710465 
L 406.132745 185.710465 
L 405.377207 185.381523 
C 406.492525 184.461514 407.515329 183.43871 408.435339 182.421046 
L 414.320315 182.421046 
z
M 419.619363 186.666453 
L 419.619363 191.004374 
L 413.893718 191.004374 
L 413.893718 186.666453 
L 419.619363 186.666453 
z
M 419.747856 193.014004 
C 418.663376 194.129322 416.458437 196.072135 414.551602 197.454719 
C 413.86288 196.005319 412.876054 194.622735 411.591125 193.4406 
C 412.284987 192.978026 412.906893 192.520591 413.49796 191.9912 
L 419.619363 191.9912 
L 419.619363 192.978026 
L 419.948305 192.978026 
C 420.637028 192.978026 421.69067 192.520591 421.721508 192.320142 
L 421.721508 186.959417 
C 422.281737 186.861762 422.77515 186.599636 422.908783 186.368349 
L 420.472557 184.492352 
L 419.32126 185.710465 
L 413.169018 185.710465 
C 414.520764 184.821294 415.934186 183.541505 416.854196 182.652333 
C 417.512079 182.616355 417.907838 182.554679 418.139125 182.323392 
L 415.738877 180.087615 
L 414.423109 181.43422 
L 409.288532 181.43422 
C 409.715128 180.909969 410.110886 180.416556 410.439828 179.887166 
C 411.231345 180.020798 411.49347 179.856327 411.657941 179.527385 
L 408.337684 178.442905 
C 406.888284 181.696346 403.896968 185.545994 400.998168 187.750933 
L 401.363087 188.146691 
C 402.118626 187.750933 402.874164 187.288359 403.629703 186.764107 
L 403.629703 193.306968 
L 403.958645 193.306968 
C 405.012287 193.306968 405.706149 192.813555 405.706149 192.649084 
L 405.706149 191.9912 
L 410.671116 191.9912 
C 408.137235 194.1653 404.554852 196.138952 400.833697 197.552374 
L 401.1318 198.112603 
C 404.683345 197.125778 408.173213 195.676377 410.969219 193.867197 
C 411.298161 194.262955 411.591125 194.72553 411.853251 195.152126 
C 409.453003 197.747683 405.243574 200.281564 401.527558 201.694986 
L 401.722868 202.291193 
C 405.639332 201.139897 409.946415 199.130267 412.809238 197.058961 
C 412.942871 197.485558 413.071364 197.912154 413.204996 198.343891 
C 410.373012 201.468839 405.706149 204.624625 401.296271 205.971231 
L 401.460742 206.464644 
C 405.932296 205.477818 410.506645 202.979916 413.698409 200.379219 
C 414.058189 202.882261 413.765225 205.0872 413.071364 205.940393 
C 412.906893 206.202518 412.644767 206.238496 412.284987 206.238496 
C 411.560287 206.238496 409.32451 206.104864 408.070419 206.038047 
L 408.106397 206.567438 
C 409.190877 206.731909 410.244519 207.060851 410.640277 207.286999 
C 411.066874 207.554264 411.262183 207.944883 411.298161 208.571928 
C 413.071364 208.571928 414.155844 208.242986 414.752051 207.45147 
C 416.067819 205.873576 416.396761 201.859457 414.813728 198.045787 
C 415.245464 197.881316 415.738877 197.716845 416.196312 197.521536 
C 417.183137 201.468839 419.089973 204.393338 422.086428 206.336151 
C 422.379392 205.349325 422.939621 204.758258 423.797954 204.655463 
L 423.828792 204.326522 
C 420.673006 202.979916 418.072309 200.512851 416.854196 197.223432 
C 418.565721 196.431916 420.143615 195.578723 421.063624 195.054471 
C 421.526199 195.218942 421.855141 195.182964 422.05045 194.951677 
L 419.747856 193.014004 
z
" clip-path="url(#pf0a5f82058)" style="fill: #6f685c"/>
   </g>
  </g>
 </g>
 <defs>
  <clipPath id="pf0a5f82058">
   <rect x="3.6" y="3.6" width="617.76391" height="221.76"/>
  </clipPath>
 </defs>
</svg>
